<svg width="148" height="164" viewBox="0 0 148 164" fill="none" xmlns="http://www.w3.org/2000/svg">
<g filter="url(#filter0_d_127_1259)">
<path fill-rule="evenodd" clip-rule="evenodd" d="M68.9244 18.5891C79.3869 12.0225 93.7709 6.14106 100.779 9.08178C126.655 20.0843 109.968 50.5423 101.71 63.0146C108.204 63.8972 136.04 74.3114 128.811 91.2425C121.117 109.62 80.9802 110.183 66.0575 95.2607C80.4898 103.347 117.148 99.7934 109.968 80.068C108.008 74.9469 99.0397 70.781 90.2914 68.2325C100.779 51.5459 107.909 32.0892 93.036 25.18C71.1047 14.9862 33.9082 57.6719 47.9738 83.2049C-1.25312 51.1791 16.5848 -38.5035 68.9244 18.5891ZM47.9738 83.2049C4.11252 37.7503 37.6335 -3.7331 61.5987 26.0384C43.7111 45.0047 38.4664 70.9032 47.9738 83.2049Z" fill="white"/>
<path fill-rule="evenodd" clip-rule="evenodd" d="M48.0578 83.3474C40.3271 66.0317 65.6818 41.9137 75.165 44.2851C79.9066 45.5217 87.636 51.1905 75.165 74.3813C81.6577 74.6908 87.4297 79.7406 86.9151 84.1727C85.988 91.2845 73.722 96.7469 66.1989 95.3039C81.3495 100.973 104.54 90.0478 97.9432 79.0198C94.6446 73.5573 88.1518 72.0112 81.0401 71.5985C87.636 62.6312 97.3242 38.9258 80.9369 33.2571C60.8383 26.4535 39.0917 66.0317 48.0578 83.3474Z" fill="white"/>
<path fill-rule="evenodd" clip-rule="evenodd" d="M48.0578 83.3473C20.2298 54.0763 36.2045 18.3113 55.0664 34.4936C53.6234 36.246 51.5615 39.7497 50.428 41.7085C32.185 43.1502 37.8538 72.0098 48.0578 83.3473Z" fill="white"/>
<path d="M4.33619 122.489C6.92967 122.425 9.14694 122.377 10.988 122.345C12.829 122.313 14.3099 122.297 15.4305 122.297C18.9205 122.297 21.6661 123.025 23.6672 124.482C25.6684 125.939 26.669 128.124 26.669 131.038C26.669 132.447 26.2687 133.759 25.4683 134.976C24.6678 136.193 23.6432 137.073 22.3945 137.617C23.195 137.874 23.9554 138.282 24.6758 138.842C25.3962 139.403 26.0126 140.059 26.5249 140.811C27.0372 141.564 27.4454 142.38 27.7496 143.261C28.0537 144.141 28.2058 145.046 28.2058 145.974C28.2058 149.272 27.1572 151.714 25.06 153.298C22.9628 154.883 19.9931 155.676 16.1509 155.676C14.9663 155.676 13.3974 155.66 11.4443 155.628C9.49114 155.596 7.12178 155.548 4.33619 155.484L4 155.148V122.825L4.33619 122.489ZM15.5746 140.931H11.5883V150.297C12.4208 150.265 13.3573 150.265 14.3979 150.297C15.4385 150.329 16.4071 150.249 17.3036 150.057C18.2001 149.864 18.9525 149.4 19.5609 148.664C20.1692 147.927 20.4734 146.903 20.4734 145.59C20.4734 144.341 20.0812 143.253 19.2967 142.324C18.5123 141.396 17.2716 140.931 15.5746 140.931ZM11.5883 127.724V135.456H14.9983C16.5352 135.456 17.6158 135.08 18.2401 134.328C18.8645 133.575 19.1767 132.655 19.1767 131.566C19.1767 130.477 18.8565 129.573 18.2161 128.852C17.5758 128.132 16.5031 127.772 14.9983 127.772H13.0532C13.0532 127.772 12.5649 127.756 11.5883 127.724ZM41.4134 136.945V155.388C40.8691 155.484 40.2767 155.556 39.6364 155.604C38.996 155.652 38.3396 155.676 37.6672 155.676C36.9949 155.676 36.3305 155.652 35.6741 155.604C35.0177 155.556 34.4174 155.484 33.8731 155.388V139.491C33.8731 137.634 33.1206 136.705 31.6158 136.705H30.8954C30.7033 136.097 30.6072 135.248 30.6072 134.16C30.6072 133.103 30.7033 132.206 30.8954 131.47C31.7278 131.406 32.4963 131.35 33.2007 131.302C33.9051 131.254 34.5455 131.23 35.1218 131.23H36.1784C37.8113 131.23 39.0921 131.742 40.0206 132.767C40.9491 133.791 41.4134 135.184 41.4134 136.945ZM33.0086 121.768C33.9371 121.256 35.1378 121 36.6106 121C38.1155 121 39.2842 121.256 40.1166 121.768C40.5009 122.633 40.693 123.561 40.693 124.554C40.693 125.547 40.5009 126.475 40.1166 127.34C39.1881 127.82 37.9714 128.06 36.4666 128.06C34.9617 128.06 33.809 127.82 33.0086 127.34C32.6244 126.475 32.4322 125.547 32.4322 124.554C32.4322 123.561 32.6244 122.633 33.0086 121.768ZM46.4563 148.952L52.1235 141.364C53.1801 139.955 54.4768 138.45 56.0137 136.849L55.8696 136.609C53.5003 136.865 51.5151 136.993 49.9142 136.993H46.2161C46.024 136.225 45.928 135.408 45.928 134.544C45.928 133.679 46.072 132.639 46.3602 131.422H63.0738C63.7461 133.375 64.0823 134.752 64.0823 135.552C64.0823 136.353 63.8422 137.089 63.3619 137.762L57.4545 145.59C55.9497 147.575 54.749 149.016 53.8525 149.913L53.9966 150.153C55.4054 149.961 56.6701 149.864 57.7907 149.864H59.4717C61.3608 149.864 62.8496 149.592 63.9382 149.048C64.4505 150.297 64.7067 151.305 64.7067 152.074C64.7067 154.283 63.3779 155.388 60.7204 155.388H46.2161C45.6718 153.851 45.3997 152.61 45.3997 151.666C45.3997 150.721 45.7519 149.816 46.4563 148.952ZM72.199 152.218L66.5317 123.017C68.0686 122.441 69.4294 122.153 70.6141 122.153C71.9588 122.153 72.9354 122.449 73.5437 123.041C74.1521 123.634 74.5843 124.746 74.8405 126.379L76.8576 138.77C77.466 142.484 77.8502 145.078 78.0103 146.551C78.1704 148.023 78.2744 148.792 78.3225 148.856C78.3705 148.92 78.4745 148.952 78.6346 148.952L82.6209 123.209C83.8056 122.985 85.4545 122.873 87.5677 122.873C89.681 122.873 91.3139 122.985 92.4666 123.209L96.1166 148.328C96.1487 148.616 96.2047 148.792 96.2847 148.856C96.3648 148.92 96.4848 148.952 96.6449 148.952C96.9331 145.942 97.4134 142.532 98.0858 138.722L100.775 122.585C101.704 122.393 102.776 122.297 103.993 122.297C105.466 122.297 106.763 122.473 107.883 122.825L108.22 123.257L101.88 155.34C99.7987 155.564 97.8456 155.676 96.0206 155.676C94.1955 155.676 92.8988 155.452 92.1304 155.003C91.3619 154.555 90.8656 153.627 90.6415 152.218L89.0086 141.796C88.4322 138.018 87.968 134.304 87.6158 130.654H87.2796C86.9274 133.759 86.3991 137.473 85.6947 141.796L83.5334 155.34C81.3562 155.564 79.3791 155.676 77.6021 155.676C75.825 155.676 74.5523 155.452 73.7839 155.003C73.0154 154.555 72.4871 153.627 72.199 152.218ZM120.707 136.945V155.388C120.162 155.484 119.57 155.556 118.93 155.604C118.289 155.652 117.633 155.676 116.961 155.676C116.288 155.676 115.624 155.652 114.967 155.604C114.311 155.556 113.711 155.484 113.166 155.388V139.491C113.166 137.634 112.414 136.705 110.909 136.705H110.189C109.997 136.097 109.901 135.248 109.901 134.16C109.901 133.103 109.997 132.206 110.189 131.47C111.021 131.406 111.79 131.35 112.494 131.302C113.198 131.254 113.839 131.23 114.415 131.23H115.472C117.105 131.23 118.385 131.742 119.314 132.767C120.242 133.791 120.707 135.184 120.707 136.945ZM112.302 121.768C113.23 121.256 114.431 121 115.904 121C117.409 121 118.577 121.256 119.41 121.768C119.794 122.633 119.986 123.561 119.986 124.554C119.986 125.547 119.794 126.475 119.41 127.34C118.481 127.82 117.265 128.06 115.76 128.06C114.255 128.06 113.102 127.82 112.302 127.34C111.918 126.475 111.726 125.547 111.726 124.554C111.726 123.561 111.918 122.633 112.302 121.768ZM125.75 148.952L131.417 141.364C132.473 139.955 133.77 138.45 135.307 136.849L135.163 136.609C132.794 136.865 130.808 136.993 129.208 136.993H125.509C125.317 136.225 125.221 135.408 125.221 134.544C125.221 133.679 125.365 132.639 125.654 131.422H142.367C143.039 133.375 143.376 134.752 143.376 135.552C143.376 136.353 143.135 137.089 142.655 137.762L136.748 145.59C135.243 147.575 134.042 149.016 133.146 149.913L133.29 150.153C134.699 149.961 135.963 149.864 137.084 149.864H138.765C140.654 149.864 142.143 149.592 143.232 149.048C143.744 150.297 144 151.305 144 152.074C144 154.283 142.671 155.388 140.014 155.388H125.509C124.965 153.851 124.693 152.61 124.693 151.666C124.693 150.721 125.045 149.816 125.75 148.952Z" fill="white"/>
</g>
<defs>
<filter id="filter0_d_127_1259" x="0" y="0" width="148" height="163.676" filterUnits="userSpaceOnUse" color-interpolation-filters="sRGB">
<feFlood flood-opacity="0" result="BackgroundImageFix"/>
<feColorMatrix in="SourceAlpha" type="matrix" values="0 0 0 0 0 0 0 0 0 0 0 0 0 0 0 0 0 0 127 0" result="hardAlpha"/>
<feOffset dy="4"/>
<feGaussianBlur stdDeviation="2"/>
<feComposite in2="hardAlpha" operator="out"/>
<feColorMatrix type="matrix" values="0 0 0 0 0 0 0 0 0 0 0 0 0 0 0 0 0 0 0.25 0"/>
<feBlend mode="normal" in2="BackgroundImageFix" result="effect1_dropShadow_127_1259"/>
<feBlend mode="normal" in="SourceGraphic" in2="effect1_dropShadow_127_1259" result="shape"/>
</filter>
</defs>
</svg>
