<svg width="48" height="46" viewBox="0 0 48 46" fill="none" xmlns="http://www.w3.org/2000/svg">
  <path fillRule="evenodd" d="M21.5889 8.03855C26.1133 5.19892 32.3334 2.65559 35.3641 3.92726C46.5535 8.68512 39.3377 21.8561 35.7667 27.2496C38.5749 27.6312 50.6119 32.1346 47.4859 39.4562C44.1589 47.4034 26.8022 47.6469 20.3492 41.1938C26.5902 44.6905 42.4422 43.1539 39.3377 34.624C38.4901 32.4095 34.6118 30.608 30.8287 29.506C35.3641 22.2901 38.4471 13.8764 32.0156 10.8886C22.5318 6.4805 6.44679 24.9392 12.5292 35.9805C-8.75811 22.1315 -1.04441 -16.6501 21.5889 8.03855ZM12.5292 35.9805C-6.43783 16.3245 8.05772 -1.61431 18.421 11.2598C10.6859 19.4615 8.4179 30.6609 12.5292 35.9805Z" fill="url(#paint0_linear_123_1238)"/>
  <path fillRule="evenodd" d="M12.5655 36.0421C9.22254 28.5542 20.1867 18.1248 24.2876 19.1503C26.338 19.685 29.6804 22.1364 24.2876 32.1649C27.0952 32.2987 29.5912 34.4824 29.3687 36.399C28.9678 39.4743 23.6636 41.8364 20.4103 41.2125C26.962 43.6638 36.9904 38.9395 34.1376 34.1707C32.7112 31.8085 29.9035 31.1399 26.8281 30.9615C29.6804 27.0837 33.8699 16.8327 26.7835 14.3814C18.0922 11.4393 8.68832 28.5542 12.5655 36.0421Z" fill="url(#paint1_linear_123_1238)"/>
  <path fillRule="evenodd" d="M12.5655 36.042C0.531817 23.3842 7.43978 7.91829 15.5963 14.916C14.9723 15.6739 14.0806 17.1889 13.5905 18.036C5.70164 18.6594 8.15299 31.1393 12.5655 36.042Z" fill="url(#paint2_linear_123_1238)"/>
  <defs>
    <linearGradient id="paint0_linear_123_1238" x1="1.78814e-07" y1="22.8754" x2="48" y2="22.8754" gradientUnits="userSpaceOnUse">
      <stop stopColor="#851291"/>
      <stop offset="1" stopColor="#65006F"/>
    </linearGradient>
    <linearGradient id="paint1_linear_123_1238" x1="11.6671" y1="27.9632" x2="34.6364" y2="27.9632" gradientUnits="userSpaceOnUse">
      <stop stopColor="#851291"/>
      <stop offset="1" stopColor="#65006F"/>
    </linearGradient>
    <linearGradient id="paint2_linear_123_1238" x1="6.07948" y1="24.6061" x2="15.5963" y2="24.6061" gradientUnits="userSpaceOnUse">
      <stop stopColor="#851291"/>
      <stop offset="1" stopColor="#65006F"/>
    </linearGradient>
  </defs>
</svg>
